  0
SECTION
  2
HEADER
  9
$ACADVER
  1
AC1009
  9
$FILLMODE
 70
0
  9
$EXTMIN
 10
-0.2787
 20
-0.2787
 30
0.0000
  9
$EXTMAX
 10
40.2787
 20
44.2787
 30
0.0000
  0
ENDSEC
  0
SECTION
  2
TABLES
  0
TABLE
  2
LTYPE
 70
1
  0
LTYPE
  2
CONTINUOUS
 70
64
  3
Solid line
 72
65
 73
0
 40
0
  0
ENDTAB
  0
TABLE
  2
LAYER
 70
255
  0
LAYER
  2
32
 70
64
 62
253
  6
CONTINUOUS
  0
ENDTAB
  0
ENDSEC
  0
SECTION
  2
BLOCKS
  0
BLOCK
  8
0
  2
RECT
 70
64
 10
0.0000
 20
0.0000
 30
0.0000
  3
RECT
  0
SOLID
  8
0
 10
-0.5000
 20
-0.5000
 30
0.0000
 11
0.5000
 21
-0.5000
 31
0.0000
 12
-0.5000
 22
0.5000
 32
0.0000
 13
0.5000
 23
0.5000
 33
0.0000
  0
ENDBLK
  8
0
  0
BLOCK
  8
0
  2
PIE
 70
64
 10
0.0000
 20
0.0000
 30
0.0000
  3
PIE
  0
CIRCLE
  8
0
 10
0.0000
 20
0.0000
 30
0.0000
 40
0.5000
  0
ENDBLK
  8
0
  0
BLOCK
  8
0
  2
OCTAGONP
 70
64
 10
0.0000
 20
0.0000
 30
0.0000
  3
OCTAGONP
  0
POLYLINE
  8
0
 66
1
 10
0.0000
 20
0.0000
 30
0.0000
 40
0.0000
 41
0.0000
 70
1
  0
VERTEX
  8
0
 10
-0.5000
 20
-0.2071
 30
0.0000
  0
VERTEX
  8
0
 10
-0.5000
 20
0.2071
 30
0.0000
  0
VERTEX
  8
0
 10
-0.2071
 20
0.5000
 30
0.0000
  0
VERTEX
  8
0
 10
0.2071
 20
0.5000
 30
0.0000
  0
VERTEX
  8
0
 10
0.5000
 20
0.2071
 30
0.0000
  0
VERTEX
  8
0
 10
0.5000
 20
-0.2071
 30
0.0000
  0
VERTEX
  8
0
 10
0.2071
 20
-0.5000
 30
0.0000
  0
VERTEX
  8
0
 10
-0.2071
 20
-0.5000
 30
0.0000
  0
SEQEND
  8
0
  0
ENDBLK
  8
0
  0
BLOCK
  8
0
  2
SQUAREP
 70
64
 10
0.0000
 20
0.0000
 30
0.0000
  3
SQUAREP
  0
SOLID
  8
0
 10
-0.5000
 20
-0.5000
 30
0.0000
 11
0.5000
 21
-0.5000
 31
0.0000
 12
-0.5000
 22
0.5000
 32
0.0000
 13
0.5000
 23
0.5000
 33
0.0000
  0
ENDBLK
  8
0
  0
BLOCK
  8
0
  2
ROUNDP
 70
64
 10
0.0000
 20
0.0000
 30
0.0000
  3
ROUNDP
  0
CIRCLE
  8
0
 10
0.0000
 20
0.0000
 30
0.0000
 40
0.5000
  0
ENDBLK
  8
0
  0
BLOCK
  8
0
  2
ANNULUSP
 70
64
 10
0.0000
 20
0.0000
 30
0.0000
  3
ANNULUSP
  0
CIRCLE
  8
0
 10
0.0000
 20
0.0000
 30
0.0000
 40
0.5000
  0
ENDBLK
  8
0
  0
BLOCK
  8
0
  2
THERMALP
 70
64
 10
0.0000
 20
0.0000
 30
0.0000
  3
THERMALP
  0
LINE
  8
0
 10
-0.2379
 20
0.4500
 30
0.0000
 11
0.2379
 21
0.4500
 31
0.0000
  0
LINE
  8
0
 10
0.4500
 20
0.2379
 30
0.0000
 11
0.4500
 21
-0.2379
 31
0.0000
  0
LINE
  8
0
 10
0.2379
 20
-0.4500
 30
0.0000
 11
-0.2379
 21
-0.4500
 31
0.0000
  0
LINE
  8
0
 10
-0.4500
 20
-0.2379
 30
0.0000
 11
-0.4500
 21
0.2379
 31
0.0000
  0
ENDBLK
  8
0
  0
BLOCK
  8
0
  2
OCTAGONV
 70
64
 10
0.0000
 20
0.0000
 30
0.0000
  3
OCTAGONV
  0
POLYLINE
  8
0
 66
1
 10
0.0000
 20
0.0000
 30
0.0000
 40
0.0000
 41
0.0000
 70
1
  0
VERTEX
  8
0
 10
-0.5000
 20
-0.2071
 30
0.0000
  0
VERTEX
  8
0
 10
-0.5000
 20
0.2071
 30
0.0000
  0
VERTEX
  8
0
 10
-0.2071
 20
0.5000
 30
0.0000
  0
VERTEX
  8
0
 10
0.2071
 20
0.5000
 30
0.0000
  0
VERTEX
  8
0
 10
0.5000
 20
0.2071
 30
0.0000
  0
VERTEX
  8
0
 10
0.5000
 20
-0.2071
 30
0.0000
  0
VERTEX
  8
0
 10
0.2071
 20
-0.5000
 30
0.0000
  0
VERTEX
  8
0
 10
-0.2071
 20
-0.5000
 30
0.0000
  0
SEQEND
  8
0
  0
ENDBLK
  8
0
  0
BLOCK
  8
0
  2
SQUAREV
 70
64
 10
0.0000
 20
0.0000
 30
0.0000
  3
SQUAREV
  0
SOLID
  8
0
 10
-0.5000
 20
-0.5000
 30
0.0000
 11
0.5000
 21
-0.5000
 31
0.0000
 12
-0.5000
 22
0.5000
 32
0.0000
 13
0.5000
 23
0.5000
 33
0.0000
  0
ENDBLK
  8
0
  0
BLOCK
  8
0
  2
ROUNDV
 70
64
 10
0.0000
 20
0.0000
 30
0.0000
  3
ROUNDV
  0
CIRCLE
  8
0
 10
0.0000
 20
0.0000
 30
0.0000
 40
0.5000
  0
ENDBLK
  8
0
  0
BLOCK
  8
0
  2
ANNULUSV
 70
64
 10
0.0000
 20
0.0000
 30
0.0000
  3
ANNULUSV
  0
CIRCLE
  8
0
 10
0.0000
 20
0.0000
 30
0.0000
 40
0.5000
  0
ENDBLK
  8
0
  0
BLOCK
  8
0
  2
THERMALV
 70
64
 10
0.0000
 20
0.0000
 30
0.0000
  3
THERMALV
  0
LINE
  8
0
 10
-0.2379
 20
0.4500
 30
0.0000
 11
0.2379
 21
0.4500
 31
0.0000
  0
LINE
  8
0
 10
0.4500
 20
0.2379
 30
0.0000
 11
0.4500
 21
-0.2379
 31
0.0000
  0
LINE
  8
0
 10
0.2379
 20
-0.4500
 30
0.0000
 11
-0.2379
 21
-0.4500
 31
0.0000
  0
LINE
  8
0
 10
-0.4500
 20
-0.2379
 30
0.0000
 11
-0.4500
 21
0.2379
 31
0.0000
  0
ENDBLK
  8
0
  0
ENDSEC
  0
SECTION
  2
ENTITIES
  0
INSERT
  8
32
  2
RECT
 10
18.8125
 20
37.2563
 30
0.0000
 41
0.9000
 42
0.8000
 43
1.0000
 50
270.0000
  0
INSERT
  8
32
  2
RECT
 10
18.8125
 20
35.5562
 30
0.0000
 41
0.9000
 42
0.8000
 43
1.0000
 50
270.0000
  0
INSERT
  8
32
  2
RECT
 10
13.7563
 20
37.2188
 30
0.0000
 41
0.9000
 42
0.8000
 43
1.0000
 50
180.0000
  0
INSERT
  8
32
  2
RECT
 10
12.0563
 20
37.2188
 30
0.0000
 41
0.9000
 42
0.8000
 43
1.0000
 50
180.0000
  0
INSERT
  8
32
  2
RECT
 10
22.0063
 20
41.0625
 30
0.0000
 41
0.9000
 42
0.8000
 43
1.0000
 50
180.0000
  0
INSERT
  8
32
  2
RECT
 10
20.3063
 20
41.0625
 30
0.0000
 41
0.9000
 42
0.8000
 43
1.0000
 50
180.0000
  0
INSERT
  8
32
  2
RECT
 10
18.3500
 20
41.0625
 30
0.0000
 41
0.9000
 42
0.8000
 43
1.0000
 50
180.0000
  0
INSERT
  8
32
  2
RECT
 10
16.6500
 20
41.0625
 30
0.0000
 41
0.9000
 42
0.8000
 43
1.0000
 50
180.0000
  0
INSERT
  8
32
  2
RECT
 10
26.5250
 20
38.3750
 30
0.0000
 41
0.9000
 42
0.8000
 43
1.0000
 50
0.0000
  0
INSERT
  8
32
  2
RECT
 10
28.2250
 20
38.3750
 30
0.0000
 41
0.9000
 42
0.8000
 43
1.0000
 50
0.0000
  0
INSERT
  8
32
  2
RECT
 10
17.3750
 20
37.3612
 30
0.0000
 41
0.6500
 42
0.7000
 43
1.0000
 50
270.0000
  0
INSERT
  8
32
  2
RECT
 10
17.3750
 20
36.2013
 30
0.0000
 41
0.6500
 42
0.7000
 43
1.0000
 50
270.0000
  0
INSERT
  8
32
  2
RECT
 10
13.8300
 20
38.6563
 30
0.0000
 41
0.6500
 42
0.7000
 43
1.0000
 50
180.0000
  0
INSERT
  8
32
  2
RECT
 10
12.6700
 20
38.6563
 30
0.0000
 41
0.6500
 42
0.7000
 43
1.0000
 50
180.0000
  0
INSERT
  8
32
  2
RECT
 10
21.9550
 20
39.6250
 30
0.0000
 41
0.6500
 42
0.7000
 43
1.0000
 50
180.0000
  0
INSERT
  8
32
  2
RECT
 10
20.7950
 20
39.6250
 30
0.0000
 41
0.6500
 42
0.7000
 43
1.0000
 50
180.0000
  0
INSERT
  8
32
  2
RECT
 10
18.5175
 20
39.6250
 30
0.0000
 41
0.6500
 42
0.7000
 43
1.0000
 50
180.0000
  0
INSERT
  8
32
  2
RECT
 10
17.3575
 20
39.6250
 30
0.0000
 41
0.6500
 42
0.7000
 43
1.0000
 50
180.0000
  0
INSERT
  8
32
  2
RECT
 10
26.4200
 20
36.9375
 30
0.0000
 41
0.6500
 42
0.7000
 43
1.0000
 50
0.0000
  0
INSERT
  8
32
  2
RECT
 10
27.5800
 20
36.9375
 30
0.0000
 41
0.6500
 42
0.7000
 43
1.0000
 50
0.0000
  0
INSERT
  8
32
  2
RECT
 10
27.1250
 20
34.3575
 30
0.0000
 41
0.6500
 42
0.7000
 43
1.0000
 50
90.0000
  0
INSERT
  8
32
  2
RECT
 10
27.1250
 20
35.5175
 30
0.0000
 41
0.6500
 42
0.7000
 43
1.0000
 50
90.0000
  0
LINE
  8
32
 10
22.9987
 20
34.4128
 30
0.0000
 11
22.9987
 21
35.9622
 31
0.0000
  0
LINE
  8
32
 10
22.9987
 20
35.9622
 30
0.0000
 11
24.7513
 21
35.9622
 31
0.0000
  0
LINE
  8
32
 10
24.7513
 20
35.9622
 30
0.0000
 11
24.7513
 21
34.4128
 31
0.0000
  0
LINE
  8
32
 10
24.7513
 20
34.4128
 30
0.0000
 11
22.9987
 21
34.4128
 31
0.0000
  0
LINE
  8
32
 10
22.9987
 20
34.4170
 30
0.0000
 11
24.7513
 21
34.4170
 31
0.0000
  0
LINE
  8
32
 10
22.9987
 20
34.4424
 30
0.0000
 11
24.7513
 21
34.4424
 31
0.0000
  0
LINE
  8
32
 10
22.9987
 20
34.4678
 30
0.0000
 11
24.7513
 21
34.4678
 31
0.0000
  0
LINE
  8
32
 10
22.9987
 20
34.4932
 30
0.0000
 11
24.7513
 21
34.4932
 31
0.0000
  0
LINE
  8
32
 10
22.9987
 20
34.5186
 30
0.0000
 11
24.7513
 21
34.5186
 31
0.0000
  0
LINE
  8
32
 10
22.9987
 20
34.5440
 30
0.0000
 11
24.7513
 21
34.5440
 31
0.0000
  0
LINE
  8
32
 10
22.9987
 20
34.5694
 30
0.0000
 11
24.7513
 21
34.5694
 31
0.0000
  0
LINE
  8
32
 10
22.9987
 20
34.5948
 30
0.0000
 11
24.7513
 21
34.5948
 31
0.0000
  0
LINE
  8
32
 10
22.9987
 20
34.6202
 30
0.0000
 11
24.7513
 21
34.6202
 31
0.0000
  0
LINE
  8
32
 10
22.9987
 20
34.6456
 30
0.0000
 11
24.7513
 21
34.6456
 31
0.0000
  0
LINE
  8
32
 10
22.9987
 20
34.6710
 30
0.0000
 11
24.7513
 21
34.6710
 31
0.0000
  0
LINE
  8
32
 10
22.9987
 20
34.6964
 30
0.0000
 11
24.7513
 21
34.6964
 31
0.0000
  0
LINE
  8
32
 10
22.9987
 20
34.7218
 30
0.0000
 11
24.7513
 21
34.7218
 31
0.0000
  0
LINE
  8
32
 10
22.9987
 20
34.7472
 30
0.0000
 11
24.7513
 21
34.7472
 31
0.0000
  0
LINE
  8
32
 10
22.9987
 20
34.7726
 30
0.0000
 11
24.7513
 21
34.7726
 31
0.0000
  0
LINE
  8
32
 10
22.9987
 20
34.7980
 30
0.0000
 11
24.7513
 21
34.7980
 31
0.0000
  0
LINE
  8
32
 10
22.9987
 20
34.8234
 30
0.0000
 11
24.7513
 21
34.8234
 31
0.0000
  0
LINE
  8
32
 10
22.9987
 20
34.8488
 30
0.0000
 11
24.7513
 21
34.8488
 31
0.0000
  0
LINE
  8
32
 10
22.9987
 20
34.8742
 30
0.0000
 11
24.7513
 21
34.8742
 31
0.0000
  0
LINE
  8
32
 10
22.9987
 20
34.8996
 30
0.0000
 11
24.7513
 21
34.8996
 31
0.0000
  0
LINE
  8
32
 10
22.9987
 20
34.9250
 30
0.0000
 11
24.7513
 21
34.9250
 31
0.0000
  0
LINE
  8
32
 10
22.9987
 20
34.9504
 30
0.0000
 11
24.7513
 21
34.9504
 31
0.0000
  0
LINE
  8
32
 10
22.9987
 20
34.9758
 30
0.0000
 11
24.7513
 21
34.9758
 31
0.0000
  0
LINE
  8
32
 10
22.9987
 20
35.0012
 30
0.0000
 11
24.7513
 21
35.0012
 31
0.0000
  0
LINE
  8
32
 10
22.9987
 20
35.0266
 30
0.0000
 11
24.7513
 21
35.0266
 31
0.0000
  0
LINE
  8
32
 10
22.9987
 20
35.0520
 30
0.0000
 11
24.7513
 21
35.0520
 31
0.0000
  0
LINE
  8
32
 10
22.9987
 20
35.0774
 30
0.0000
 11
24.7513
 21
35.0774
 31
0.0000
  0
LINE
  8
32
 10
22.9987
 20
35.1028
 30
0.0000
 11
24.7513
 21
35.1028
 31
0.0000
  0
LINE
  8
32
 10
22.9987
 20
35.1282
 30
0.0000
 11
24.7513
 21
35.1282
 31
0.0000
  0
LINE
  8
32
 10
22.9987
 20
35.1536
 30
0.0000
 11
24.7513
 21
35.1536
 31
0.0000
  0
LINE
  8
32
 10
22.9987
 20
35.1790
 30
0.0000
 11
24.7513
 21
35.1790
 31
0.0000
  0
LINE
  8
32
 10
22.9987
 20
35.2044
 30
0.0000
 11
24.7513
 21
35.2044
 31
0.0000
  0
LINE
  8
32
 10
22.9987
 20
35.2298
 30
0.0000
 11
24.7513
 21
35.2298
 31
0.0000
  0
LINE
  8
32
 10
22.9987
 20
35.2552
 30
0.0000
 11
24.7513
 21
35.2552
 31
0.0000
  0
LINE
  8
32
 10
22.9987
 20
35.2806
 30
0.0000
 11
24.7513
 21
35.2806
 31
0.0000
  0
LINE
  8
32
 10
22.9987
 20
35.3060
 30
0.0000
 11
24.7513
 21
35.3060
 31
0.0000
  0
LINE
  8
32
 10
22.9987
 20
35.3314
 30
0.0000
 11
24.7513
 21
35.3314
 31
0.0000
  0
LINE
  8
32
 10
22.9987
 20
35.3568
 30
0.0000
 11
24.7513
 21
35.3568
 31
0.0000
  0
LINE
  8
32
 10
22.9987
 20
35.3822
 30
0.0000
 11
24.7513
 21
35.3822
 31
0.0000
  0
LINE
  8
32
 10
22.9987
 20
35.4076
 30
0.0000
 11
24.7513
 21
35.4076
 31
0.0000
  0
LINE
  8
32
 10
22.9987
 20
35.4330
 30
0.0000
 11
24.7513
 21
35.4330
 31
0.0000
  0
LINE
  8
32
 10
22.9987
 20
35.4584
 30
0.0000
 11
24.7513
 21
35.4584
 31
0.0000
  0
LINE
  8
32
 10
22.9987
 20
35.4838
 30
0.0000
 11
24.7513
 21
35.4838
 31
0.0000
  0
LINE
  8
32
 10
22.9987
 20
35.5092
 30
0.0000
 11
24.7513
 21
35.5092
 31
0.0000
  0
LINE
  8
32
 10
22.9987
 20
35.5346
 30
0.0000
 11
24.7513
 21
35.5346
 31
0.0000
  0
LINE
  8
32
 10
22.9987
 20
35.5600
 30
0.0000
 11
24.7513
 21
35.5600
 31
0.0000
  0
LINE
  8
32
 10
22.9987
 20
35.5854
 30
0.0000
 11
24.7513
 21
35.5854
 31
0.0000
  0
LINE
  8
32
 10
22.9987
 20
35.6108
 30
0.0000
 11
24.7513
 21
35.6108
 31
0.0000
  0
LINE
  8
32
 10
22.9987
 20
35.6362
 30
0.0000
 11
24.7513
 21
35.6362
 31
0.0000
  0
LINE
  8
32
 10
22.9987
 20
35.6616
 30
0.0000
 11
24.7513
 21
35.6616
 31
0.0000
  0
LINE
  8
32
 10
22.9987
 20
35.6870
 30
0.0000
 11
24.7513
 21
35.6870
 31
0.0000
  0
LINE
  8
32
 10
22.9987
 20
35.7124
 30
0.0000
 11
24.7513
 21
35.7124
 31
0.0000
  0
LINE
  8
32
 10
22.9987
 20
35.7378
 30
0.0000
 11
24.7513
 21
35.7378
 31
0.0000
  0
LINE
  8
32
 10
22.9987
 20
35.7632
 30
0.0000
 11
24.7513
 21
35.7632
 31
0.0000
  0
LINE
  8
32
 10
22.9987
 20
35.7886
 30
0.0000
 11
24.7513
 21
35.7886
 31
0.0000
  0
LINE
  8
32
 10
22.9987
 20
35.8140
 30
0.0000
 11
24.7513
 21
35.8140
 31
0.0000
  0
LINE
  8
32
 10
22.9987
 20
35.8394
 30
0.0000
 11
24.7513
 21
35.8394
 31
0.0000
  0
LINE
  8
32
 10
22.9987
 20
35.8648
 30
0.0000
 11
24.7513
 21
35.8648
 31
0.0000
  0
LINE
  8
32
 10
22.9987
 20
35.8902
 30
0.0000
 11
24.7513
 21
35.8902
 31
0.0000
  0
LINE
  8
32
 10
22.9987
 20
35.9156
 30
0.0000
 11
24.7513
 21
35.9156
 31
0.0000
  0
LINE
  8
32
 10
22.9987
 20
35.9410
 30
0.0000
 11
24.7513
 21
35.9410
 31
0.0000
  0
INSERT
  8
32
  2
RECT
 10
22.4272
 20
34.4375
 30
0.0000
 41
0.7144
 42
0.1048
 43
1.0000
 50
0.0000
  0
INSERT
  8
32
  2
RECT
 10
22.4272
 20
34.9375
 30
0.0000
 41
0.7144
 42
0.1048
 43
1.0000
 50
0.0000
  0
INSERT
  8
32
  2
RECT
 10
22.4272
 20
35.4375
 30
0.0000
 41
0.7144
 42
0.1048
 43
1.0000
 50
0.0000
  0
INSERT
  8
32
  2
RECT
 10
22.4272
 20
35.9375
 30
0.0000
 41
0.7144
 42
0.1048
 43
1.0000
 50
0.0000
  0
INSERT
  8
32
  2
RECT
 10
25.3228
 20
35.9375
 30
0.0000
 41
0.7144
 42
0.1048
 43
1.0000
 50
0.0000
  0
INSERT
  8
32
  2
RECT
 10
25.3228
 20
35.4375
 30
0.0000
 41
0.7144
 42
0.1048
 43
1.0000
 50
0.0000
  0
INSERT
  8
32
  2
RECT
 10
25.3228
 20
34.9375
 30
0.0000
 41
0.7144
 42
0.1048
 43
1.0000
 50
0.0000
  0
INSERT
  8
32
  2
RECT
 10
25.3228
 20
34.4375
 30
0.0000
 41
0.7144
 42
0.1048
 43
1.0000
 50
0.0000
  0
ENDSEC
  0
EOF
