  0
SECTION
  2
HEADER
  9
$ACADVER
  1
AC1009
  9
$INSBASE
 10
0.0
 20
0.0
 30
0.0
  9
$EXTMIN
 10
12.5050000000000008
 20
29.629999999999999
 30
0.0
  9
$EXTMAX
 10
27.4637999999999991
 20
41.4763000000000019
 30
0.0
  9
$LIMMIN
 10
0.0
 20
0.0
  9
$LIMMAX
 10
12.0
 20
9.0
  9
$ORTHOMODE
 70
     0
  9
$REGENMODE
 70
     1
  9
$FILLMODE
 70
     0
  9
$QTEXTMODE
 70
     0
  9
$MIRRTEXT
 70
     0
  9
$DRAGMODE
 70
     2
  9
$LTSCALE
 40
1.0
  9
$OSMODE
 70
  4095
  9
$ATTMODE
 70
     1
  9
$TEXTSIZE
 40
0.2
  9
$TRACEWID
 40
0.05
  9
$TEXTSTYLE
  7
STANDARD
  9
$CLAYER
  8
0
  9
$CELTYPE
  6
CONTINUOUS
  9
$CECOLOR
 62
   256
  9
$DIMSCALE
 40
1.0
  9
$DIMASZ
 40
0.18
  9
$DIMEXO
 40
0.0625
  9
$DIMDLI
 40
0.38
  9
$DIMRND
 40
0.0
  9
$DIMDLE
 40
0.0
  9
$DIMEXE
 40
0.18
  9
$DIMTP
 40
0.0
  9
$DIMTM
 40
0.0
  9
$DIMTXT
 40
0.18
  9
$DIMCEN
 40
0.09
  9
$DIMTSZ
 40
0.0
  9
$DIMTOL
 70
     0
  9
$DIMLIM
 70
     0
  9
$DIMTIH
 70
     1
  9
$DIMTOH
 70
     1
  9
$DIMSE1
 70
     0
  9
$DIMSE2
 70
     0
  9
$DIMTAD
 70
     0
  9
$DIMZIN
 70
     0
  9
$DIMBLK
  1

  9
$DIMASO
 70
     1
  9
$DIMSHO
 70
     1
  9
$DIMPOST
  1

  9
$DIMAPOST
  1

  9
$DIMALT
 70
     0
  9
$DIMALTD
 70
     2
  9
$DIMALTF
 40
25.3999999999999986
  9
$DIMLFAC
 40
1.0
  9
$DIMTOFL
 70
     0
  9
$DIMTVP
 40
0.0
  9
$DIMTIX
 70
     0
  9
$DIMSOXD
 70
     0
  9
$DIMSAH
 70
     0
  9
$DIMBLK1
  1

  9
$DIMBLK2
  1

  9
$DIMSTYLE
  2
STANDARD
  9
$DIMCLRD
 70
     0
  9
$DIMCLRE
 70
     0
  9
$DIMCLRT
 70
     0
  9
$DIMTFAC
 40
1.0
  9
$DIMGAP
 40
0.09
  9
$LUNITS
 70
     2
  9
$LUPREC
 70
     4
  9
$SKETCHINC
 40
0.1
  9
$FILLETRAD
 40
0.0
  9
$AUNITS
 70
     0
  9
$AUPREC
 70
     0
  9
$MENU
  1
.
  9
$ELEVATION
 40
0.0
  9
$PELEVATION
 40
0.0
  9
$THICKNESS
 40
0.0
  9
$LIMCHECK
 70
     0
  9
$BLIPMODE
 70
     0
  9
$CHAMFERA
 40
0.0
  9
$CHAMFERB
 40
0.0
  9
$SKPOLY
 70
     0
  9
$TDCREATE
 40
2458285.6370023149065673
  9
$TDUPDATE
 40
2458285.6378819448873401
  9
$TDINDWG
 40
0.0008796296
  9
$TDUSRTIMER
 40
0.0008796296
  9
$USRTIMER
 70
     1
  9
$ANGBASE
 50
0.0
  9
$ANGDIR
 70
     0
  9
$PDMODE
 70
     0
  9
$PDSIZE
 40
0.0
  9
$PLINEWID
 40
0.0
  9
$COORDS
 70
     1
  9
$SPLFRAME
 70
     0
  9
$SPLINETYPE
 70
     6
  9
$SPLINESEGS
 70
     8
  9
$ATTDIA
 70
     1
  9
$ATTREQ
 70
     1
  9
$HANDLING
 70
     1
  9
$HANDSEED
  5
359
  9
$SURFTAB1
 70
     6
  9
$SURFTAB2
 70
     6
  9
$SURFTYPE
 70
     6
  9
$SURFU
 70
     6
  9
$SURFV
 70
     6
  9
$UCSNAME
  2

  9
$UCSORG
 10
0.0
 20
0.0
 30
0.0
  9
$UCSXDIR
 10
1.0
 20
0.0
 30
0.0
  9
$UCSYDIR
 10
0.0
 20
1.0
 30
0.0
  9
$PUCSNAME
  2

  9
$PUCSORG
 10
0.0
 20
0.0
 30
0.0
  9
$PUCSXDIR
 10
1.0
 20
0.0
 30
0.0
  9
$PUCSYDIR
 10
0.0
 20
1.0
 30
0.0
  9
$USERI1
 70
     0
  9
$USERI2
 70
     0
  9
$USERI3
 70
     0
  9
$USERI4
 70
     0
  9
$USERI5
 70
     0
  9
$USERR1
 40
0.0
  9
$USERR2
 40
0.0
  9
$USERR3
 40
0.0
  9
$USERR4
 40
0.0
  9
$USERR5
 40
0.0
  9
$WORLDVIEW
 70
     1
  9
$SHADEDGE
 70
     3
  9
$SHADEDIF
 70
    70
  9
$TILEMODE
 70
     1
  9
$MAXACTVP
 70
    64
  9
$PLIMCHECK
 70
     0
  9
$PEXTMIN
 10
1.0000000000000000E+20
 20
1.0000000000000000E+20
 30
1.0000000000000000E+20
  9
$PEXTMAX
 10
-1.0000000000000000E+20
 20
-1.0000000000000000E+20
 30
-1.0000000000000000E+20
  9
$PLIMMIN
 10
0.0
 20
0.0
  9
$PLIMMAX
 10
12.0
 20
9.0
  9
$UNITMODE
 70
     0
  9
$VISRETAIN
 70
     1
  9
$PLINEGEN
 70
     0
  9
$PSLTSCALE
 70
     1
  0
ENDSEC
  0
SECTION
  2
TABLES
  0
TABLE
  2
VPORT
 70
     1
  0
VPORT
  2
*ACTIVE
 70
     0
 10
0.0
 20
0.0
 11
1.0
 21
1.0
 12
21.1183002649929712
 22
34.734129651717538
 13
0.0
 23
0.0
 14
1.0
 24
1.0
 15
0.0
 25
0.0
 16
0.0
 26
0.0
 36
1.0
 17
0.0
 27
0.0
 37
0.0
 40
22.0778382719257991
 41
1.8311345646437991
 42
50.0
 43
0.0
 44
0.0
 50
0.0
 51
0.0
 71
     0
 72
   100
 73
     1
 74
     1
 75
     0
 76
     0
 77
     0
 78
     0
  0
ENDTAB
  0
TABLE
  2
LTYPE
 70
     1
  0
LTYPE
  2
CONTINUOUS
 70
     0
  3
Solid line
 72
    65
 73
     0
 40
0.0
  0
ENDTAB
  0
TABLE
  2
LAYER
 70
     2
  0
LAYER
  2
0
 70
     0
 62
     7
  6
CONTINUOUS
  0
LAYER
  2
32
 70
     0
 62
   253
  6
CONTINUOUS
  0
ENDTAB
  0
TABLE
  2
STYLE
 70
     2
  0
STYLE
  2
STANDARD
 70
     0
 40
0.0
 41
1.0
 50
0.0
 71
     0
 42
0.2
  3
txt
  4

  0
STYLE
  2
ANNOTATIVE
 70
     0
 40
0.0
 41
1.0
 50
0.0
 71
     0
 42
0.2
  3
txt
  4

  0
ENDTAB
  0
TABLE
  2
VIEW
 70
     0
  0
ENDTAB
  0
TABLE
  2
UCS
 70
     0
  0
ENDTAB
  0
TABLE
  2
APPID
 70
     4
  0
APPID
  2
ACAD
 70
     0
  0
APPID
  2
ACADANNOTATIVE
 70
     0
  0
APPID
  2
ACAD_NAV_VCDISPLAY
 70
     0
  0
APPID
  2
ACAD_MLEADERVER
 70
     0
  0
ENDTAB
  0
TABLE
  2
DIMSTYLE
 70
     2
  0
DIMSTYLE
  2
STANDARD
 70
     0
  3

  4

  5

  6

  7

 40
1.0
 41
0.18
 42
0.0625
 43
0.38
 44
0.18
 45
0.0
 46
0.0
 47
0.0
 48
0.0
140
0.18
141
0.09
142
0.0
143
25.3999999999999986
144
1.0
145
0.0
146
1.0
147
0.09
 71
     0
 72
     0
 73
     1
 74
     1
 75
     0
 76
     0
 77
     0
 78
     0
170
     0
171
     2
172
     0
173
     0
174
     0
175
     0
176
     0
177
     0
178
     0
  0
DIMSTYLE
  2
ANNOTATIVE
 70
     0
  3

  4

  5

  6

  7

 40
1.0
 41
0.18
 42
0.0625
 43
0.38
 44
0.18
 45
0.0
 46
0.0
 47
0.0
 48
0.0
140
0.18
141
0.09
142
0.0
143
25.3999999999999986
144
1.0
145
0.0
146
1.0
147
0.09
 71
     0
 72
     0
 73
     1
 74
     1
 75
     0
 76
     0
 77
     0
 78
     0
170
     0
171
     2
172
     0
173
     0
174
     0
175
     0
176
     0
177
     0
178
     0
  0
ENDTAB
  0
ENDSEC
  0
SECTION
  2
BLOCKS
  0
BLOCK
  8
0
  2
$MODEL_SPACE
 70
     0
 10
0.0
 20
0.0
 30
0.0
  3
$MODEL_SPACE
  1

  0
ENDBLK
  5
71
  8
0
  0
BLOCK
 67
     1
  8
0
  2
$PAPER_SPACE
 70
     0
 10
0.0
 20
0.0
 30
0.0
  3
$PAPER_SPACE
  1

  0
ENDBLK
  5
6D
 67
     1
  8
0
  0
BLOCK
  8
0
  2
RECT
 70
     0
 10
0.0
 20
0.0
 30
0.0
  3
RECT
  1

  0
SOLID
  5
78
  8
0
 10
-0.5
 20
-0.5
 30
0.0
 11
0.5
 21
-0.5
 31
0.0
 12
-0.5
 22
0.5
 32
0.0
 13
0.5
 23
0.5
 33
0.0
  0
ENDBLK
  5
79
  8
0
  0
BLOCK
  8
0
  2
PIE
 70
     0
 10
0.0
 20
0.0
 30
0.0
  3
PIE
  1

  0
CIRCLE
  5
7C
  8
0
 10
0.0
 20
0.0
 30
0.0
 40
0.5
  0
ENDBLK
  5
7D
  8
0
  0
BLOCK
  8
0
  2
OCTAGONP
 70
     0
 10
0.0
 20
0.0
 30
0.0
  3
OCTAGONP
  1

  0
POLYLINE
  5
80
  8
0
 66
     1
 10
0.0
 20
0.0
 30
0.0
 70
     1
  0
VERTEX
  5
2AC
  8
0
 10
-0.5
 20
-0.2071
 30
0.0
  0
VERTEX
  5
2AD
  8
0
 10
-0.5
 20
0.2071
 30
0.0
  0
VERTEX
  5
2AE
  8
0
 10
-0.2071
 20
0.5
 30
0.0
  0
VERTEX
  5
2AF
  8
0
 10
0.2071
 20
0.5
 30
0.0
  0
VERTEX
  5
2B0
  8
0
 10
0.5
 20
0.2071
 30
0.0
  0
VERTEX
  5
2B1
  8
0
 10
0.5
 20
-0.2071
 30
0.0
  0
VERTEX
  5
2B2
  8
0
 10
0.2071
 20
-0.5
 30
0.0
  0
VERTEX
  5
2B3
  8
0
 10
-0.2071
 20
-0.5
 30
0.0
  0
SEQEND
  5
2B4
  8
0
  0
ENDBLK
  5
8A
  8
0
  0
BLOCK
  8
0
  2
SQUAREP
 70
     0
 10
0.0
 20
0.0
 30
0.0
  3
SQUAREP
  1

  0
SOLID
  5
8D
  8
0
 10
-0.5
 20
-0.5
 30
0.0
 11
0.5
 21
-0.5
 31
0.0
 12
-0.5
 22
0.5
 32
0.0
 13
0.5
 23
0.5
 33
0.0
  0
ENDBLK
  5
8E
  8
0
  0
BLOCK
  8
0
  2
ROUNDP
 70
     0
 10
0.0
 20
0.0
 30
0.0
  3
ROUNDP
  1

  0
CIRCLE
  5
91
  8
0
 10
0.0
 20
0.0
 30
0.0
 40
0.5
  0
ENDBLK
  5
92
  8
0
  0
BLOCK
  8
0
  2
ANNULUSP
 70
     0
 10
0.0
 20
0.0
 30
0.0
  3
ANNULUSP
  1

  0
CIRCLE
  5
95
  8
0
 10
0.0
 20
0.0
 30
0.0
 40
0.5
  0
ENDBLK
  5
96
  8
0
  0
BLOCK
  8
0
  2
THERMALP
 70
     0
 10
0.0
 20
0.0
 30
0.0
  3
THERMALP
  1

  0
LINE
  5
99
  8
0
 10
-0.2379
 20
0.45
 30
0.0
 11
0.2379
 21
0.45
 31
0.0
  0
LINE
  5
9A
  8
0
 10
0.45
 20
0.2379
 30
0.0
 11
0.45
 21
-0.2379
 31
0.0
  0
LINE
  5
9B
  8
0
 10
0.2379
 20
-0.45
 30
0.0
 11
-0.2379
 21
-0.45
 31
0.0
  0
LINE
  5
9C
  8
0
 10
-0.45
 20
-0.2379
 30
0.0
 11
-0.45
 21
0.2379
 31
0.0
  0
ENDBLK
  5
9D
  8
0
  0
BLOCK
  8
0
  2
OCTAGONV
 70
     0
 10
0.0
 20
0.0
 30
0.0
  3
OCTAGONV
  1

  0
POLYLINE
  5
A0
  8
0
 66
     1
 10
0.0
 20
0.0
 30
0.0
 70
     1
  0
VERTEX
  5
2B5
  8
0
 10
-0.5
 20
-0.2071
 30
0.0
  0
VERTEX
  5
2B6
  8
0
 10
-0.5
 20
0.2071
 30
0.0
  0
VERTEX
  5
2B7
  8
0
 10
-0.2071
 20
0.5
 30
0.0
  0
VERTEX
  5
2B8
  8
0
 10
0.2071
 20
0.5
 30
0.0
  0
VERTEX
  5
2B9
  8
0
 10
0.5
 20
0.2071
 30
0.0
  0
VERTEX
  5
2BA
  8
0
 10
0.5
 20
-0.2071
 30
0.0
  0
VERTEX
  5
2BB
  8
0
 10
0.2071
 20
-0.5
 30
0.0
  0
VERTEX
  5
2BC
  8
0
 10
-0.2071
 20
-0.5
 30
0.0
  0
SEQEND
  5
2BD
  8
0
  0
ENDBLK
  5
AA
  8
0
  0
BLOCK
  8
0
  2
SQUAREV
 70
     0
 10
0.0
 20
0.0
 30
0.0
  3
SQUAREV
  1

  0
SOLID
  5
AD
  8
0
 10
-0.5
 20
-0.5
 30
0.0
 11
0.5
 21
-0.5
 31
0.0
 12
-0.5
 22
0.5
 32
0.0
 13
0.5
 23
0.5
 33
0.0
  0
ENDBLK
  5
AE
  8
0
  0
BLOCK
  8
0
  2
ROUNDV
 70
     0
 10
0.0
 20
0.0
 30
0.0
  3
ROUNDV
  1

  0
CIRCLE
  5
B1
  8
0
 10
0.0
 20
0.0
 30
0.0
 40
0.5
  0
ENDBLK
  5
B2
  8
0
  0
BLOCK
  8
0
  2
ANNULUSV
 70
     0
 10
0.0
 20
0.0
 30
0.0
  3
ANNULUSV
  1

  0
CIRCLE
  5
B5
  8
0
 10
0.0
 20
0.0
 30
0.0
 40
0.5
  0
ENDBLK
  5
B6
  8
0
  0
BLOCK
  8
0
  2
THERMALV
 70
     0
 10
0.0
 20
0.0
 30
0.0
  3
THERMALV
  1

  0
LINE
  5
B9
  8
0
 10
-0.2379
 20
0.45
 30
0.0
 11
0.2379
 21
0.45
 31
0.0
  0
LINE
  5
BA
  8
0
 10
0.45
 20
0.2379
 30
0.0
 11
0.45
 21
-0.2379
 31
0.0
  0
LINE
  5
BB
  8
0
 10
0.2379
 20
-0.45
 30
0.0
 11
-0.2379
 21
-0.45
 31
0.0
  0
LINE
  5
BC
  8
0
 10
-0.45
 20
-0.2379
 30
0.0
 11
-0.45
 21
0.2379
 31
0.0
  0
ENDBLK
  5
BD
  8
0
  0
ENDSEC
  0
SECTION
  2
ENTITIES
  0
POLYLINE
  5
249
  8
0
  6
CONTINUOUS
 66
     1
 10
0.0
 20
0.0
 30
0.0
 70
     1
  0
VERTEX
  5
2BE
  8
0
  6
CONTINUOUS
 10
15.2126000000000001
 20
39.2379999999999995
 30
0.0
  0
VERTEX
  5
2BF
  8
0
  6
CONTINUOUS
 10
15.2126000000000001
 20
40.7620000000000005
 30
0.0
  0
VERTEX
  5
2C0
  8
0
  6
CONTINUOUS
 10
16.7874000000000017
 20
40.7620000000000005
 30
0.0
  0
VERTEX
  5
2C1
  8
0
  6
CONTINUOUS
 10
16.7874000000000017
 20
39.2379999999999995
 30
0.0
  0
SEQEND
  5
2C2
  8
0
  6
CONTINUOUS
  0
POLYLINE
  5
24A
  8
0
  6
CONTINUOUS
 66
     1
 10
0.0
 20
0.0
 30
0.0
 70
     1
  0
VERTEX
  5
2C3
  8
0
  6
CONTINUOUS
 10
14.1750000000000007
 20
40.8224000000000018
 30
0.0
  0
VERTEX
  5
2C4
  8
0
  6
CONTINUOUS
 10
14.1750000000000007
 20
40.6775999999999911
 30
0.0
  0
VERTEX
  5
2C5
  8
0
  6
CONTINUOUS
 10
14.9293999999999993
 20
40.6775999999999911
 30
0.0
  0
VERTEX
  5
2C6
  8
0
  6
CONTINUOUS
 10
14.9293999999999993
 20
40.8224000000000018
 30
0.0
  0
SEQEND
  5
2C7
  8
0
  6
CONTINUOUS
  0
POLYLINE
  5
24B
  8
0
  6
CONTINUOUS
 66
     1
 10
0.0
 20
0.0
 30
0.0
 70
     1
  0
VERTEX
  5
2C8
  8
0
  6
CONTINUOUS
 10
14.1750000000000007
 20
40.3224000000000018
 30
0.0
  0
VERTEX
  5
2C9
  8
0
  6
CONTINUOUS
 10
14.1750000000000007
 20
40.1775999999999911
 30
0.0
  0
VERTEX
  5
2CA
  8
0
  6
CONTINUOUS
 10
14.9293999999999993
 20
40.1775999999999911
 30
0.0
  0
VERTEX
  5
2CB
  8
0
  6
CONTINUOUS
 10
14.9293999999999993
 20
40.3224000000000018
 30
0.0
  0
SEQEND
  5
2CC
  8
0
  6
CONTINUOUS
  0
POLYLINE
  5
24C
  8
0
  6
CONTINUOUS
 66
     1
 10
0.0
 20
0.0
 30
0.0
 70
     1
  0
VERTEX
  5
2CD
  8
0
  6
CONTINUOUS
 10
14.1750000000000007
 20
39.3224000000000018
 30
0.0
  0
VERTEX
  5
2CE
  8
0
  6
CONTINUOUS
 10
14.1750000000000007
 20
39.1775999999999982
 30
0.0
  0
VERTEX
  5
2CF
  8
0
  6
CONTINUOUS
 10
14.9293999999999993
 20
39.1775999999999982
 30
0.0
  0
VERTEX
  5
2D0
  8
0
  6
CONTINUOUS
 10
14.9293999999999993
 20
39.3224000000000018
 30
0.0
  0
SEQEND
  5
2D1
  8
0
  6
CONTINUOUS
  0
POLYLINE
  5
24D
  8
0
  6
CONTINUOUS
 66
     1
 10
0.0
 20
0.0
 30
0.0
 70
     1
  0
VERTEX
  5
2D2
  8
0
  6
CONTINUOUS
 10
17.0705999999999989
 20
39.3224000000000018
 30
0.0
  0
VERTEX
  5
2D3
  8
0
  6
CONTINUOUS
 10
17.0705999999999989
 20
39.1775999999999982
 30
0.0
  0
VERTEX
  5
2D4
  8
0
  6
CONTINUOUS
 10
17.8249999999999993
 20
39.1775999999999982
 30
0.0
  0
VERTEX
  5
2D5
  8
0
  6
CONTINUOUS
 10
17.8249999999999993
 20
39.3224000000000018
 30
0.0
  0
SEQEND
  5
2D6
  8
0
  6
CONTINUOUS
  0
POLYLINE
  5
24E
  8
0
  6
CONTINUOUS
 66
     1
 10
0.0
 20
0.0
 30
0.0
 70
     1
  0
VERTEX
  5
2D7
  8
0
  6
CONTINUOUS
 10
17.0705999999999989
 20
39.8224000000000018
 30
0.0
  0
VERTEX
  5
2D8
  8
0
  6
CONTINUOUS
 10
17.0705999999999989
 20
39.6775999999999982
 30
0.0
  0
VERTEX
  5
2D9
  8
0
  6
CONTINUOUS
 10
17.8249999999999993
 20
39.6775999999999982
 30
0.0
  0
VERTEX
  5
2DA
  8
0
  6
CONTINUOUS
 10
17.8249999999999993
 20
39.8224000000000018
 30
0.0
  0
SEQEND
  5
2DB
  8
0
  6
CONTINUOUS
  0
POLYLINE
  5
24F
  8
0
  6
CONTINUOUS
 66
     1
 10
0.0
 20
0.0
 30
0.0
 70
     1
  0
VERTEX
  5
2DC
  8
0
  6
CONTINUOUS
 10
17.0705999999999989
 20
40.3224000000000018
 30
0.0
  0
VERTEX
  5
2DD
  8
0
  6
CONTINUOUS
 10
17.0705999999999989
 20
40.1775999999999911
 30
0.0
  0
VERTEX
  5
2DE
  8
0
  6
CONTINUOUS
 10
17.8249999999999993
 20
40.1775999999999911
 30
0.0
  0
VERTEX
  5
2DF
  8
0
  6
CONTINUOUS
 10
17.8249999999999993
 20
40.3224000000000018
 30
0.0
  0
SEQEND
  5
2E0
  8
0
  6
CONTINUOUS
  0
POLYLINE
  5
250
  8
0
  6
CONTINUOUS
 66
     1
 10
0.0
 20
0.0
 30
0.0
 70
     1
  0
VERTEX
  5
2E1
  8
0
  6
CONTINUOUS
 10
17.0705999999999989
 20
40.8224000000000018
 30
0.0
  0
VERTEX
  5
2E2
  8
0
  6
CONTINUOUS
 10
17.0705999999999989
 20
40.6775999999999911
 30
0.0
  0
VERTEX
  5
2E3
  8
0
  6
CONTINUOUS
 10
17.8249999999999993
 20
40.6775999999999911
 30
0.0
  0
VERTEX
  5
2E4
  8
0
  6
CONTINUOUS
 10
17.8249999999999993
 20
40.8224000000000018
 30
0.0
  0
SEQEND
  5
2E5
  8
0
  6
CONTINUOUS
  0
POLYLINE
  5
251
  8
0
  6
CONTINUOUS
 66
     1
 10
0.0
 20
0.0
 30
0.0
 70
     1
  0
VERTEX
  5
2E6
  8
0
  6
CONTINUOUS
 10
12.5050000000000008
 20
40.2974999999999923
 30
0.0
  0
VERTEX
  5
2E7
  8
0
  6
CONTINUOUS
 10
13.2449999999999992
 20
40.2974999999999923
 30
0.0
  0
VERTEX
  5
2E8
  8
0
  6
CONTINUOUS
 10
13.2449999999999992
 20
40.9874999999999901
 30
0.0
  0
VERTEX
  5
2E9
  8
0
  6
CONTINUOUS
 10
12.5050000000000008
 20
40.9874999999999901
 30
0.0
  0
SEQEND
  5
2EA
  8
0
  6
CONTINUOUS
  0
POLYLINE
  5
252
  8
0
  6
CONTINUOUS
 66
     1
 10
0.0
 20
0.0
 30
0.0
 70
     1
  0
VERTEX
  5
2EB
  8
0
  6
CONTINUOUS
 10
17.307500000000001
 20
37.4874999999999972
 30
0.0
  0
VERTEX
  5
2EC
  8
0
  6
CONTINUOUS
 10
16.567499999999999
 20
37.4874999999999972
 30
0.0
  0
VERTEX
  5
2ED
  8
0
  6
CONTINUOUS
 10
16.567499999999999
 20
36.7974999999999994
 30
0.0
  0
VERTEX
  5
2EE
  8
0
  6
CONTINUOUS
 10
17.307500000000001
 20
36.7974999999999994
 30
0.0
  0
SEQEND
  5
2EF
  8
0
  6
CONTINUOUS
  0
POLYLINE
  5
253
  8
0
  6
CONTINUOUS
 66
     1
 10
0.0
 20
0.0
 30
0.0
 70
     1
  0
VERTEX
  5
2F0
  8
0
  6
CONTINUOUS
 10
17.307500000000001
 20
36.3275000000000006
 30
0.0
  0
VERTEX
  5
2F1
  8
0
  6
CONTINUOUS
 10
16.567499999999999
 20
36.3275000000000006
 30
0.0
  0
VERTEX
  5
2F2
  8
0
  6
CONTINUOUS
 10
16.567499999999999
 20
35.6375000000000099
 30
0.0
  0
VERTEX
  5
2F3
  8
0
  6
CONTINUOUS
 10
17.307500000000001
 20
35.6375000000000099
 30
0.0
  0
SEQEND
  5
2F4
  8
0
  6
CONTINUOUS
  0
POLYLINE
  5
254
  8
0
  6
CONTINUOUS
 66
     1
 10
0.0
 20
0.0
 30
0.0
 70
     1
  0
VERTEX
  5
2F5
  8
0
  6
CONTINUOUS
 10
20.0749999999999993
 20
30.370000000000001
 30
0.0
  0
VERTEX
  5
2F6
  8
0
  6
CONTINUOUS
 10
20.0749999999999993
 20
29.629999999999999
 30
0.0
  0
VERTEX
  5
2F7
  8
0
  6
CONTINUOUS
 10
20.7650000000000006
 20
29.629999999999999
 30
0.0
  0
VERTEX
  5
2F8
  8
0
  6
CONTINUOUS
 10
20.7650000000000006
 20
30.370000000000001
 30
0.0
  0
SEQEND
  5
2F9
  8
0
  6
CONTINUOUS
  0
POLYLINE
  5
255
  8
0
  6
CONTINUOUS
 66
     1
 10
0.0
 20
0.0
 30
0.0
 70
     1
  0
VERTEX
  5
2FA
  8
0
  6
CONTINUOUS
 10
21.2349999999999994
 20
30.370000000000001
 30
0.0
  0
VERTEX
  5
2FB
  8
0
  6
CONTINUOUS
 10
21.2349999999999994
 20
29.629999999999999
 30
0.0
  0
VERTEX
  5
2FC
  8
0
  6
CONTINUOUS
 10
21.9250000000000007
 20
29.629999999999999
 30
0.0
  0
VERTEX
  5
2FD
  8
0
  6
CONTINUOUS
 10
21.9250000000000007
 20
30.370000000000001
 30
0.0
  0
SEQEND
  5
2FE
  8
0
  6
CONTINUOUS
  0
POLYLINE
  5
256
  8
0
  6
CONTINUOUS
 66
     1
 10
0.0
 20
0.0
 30
0.0
 70
     1
  0
VERTEX
  5
2FF
  8
0
  6
CONTINUOUS
 10
13.1300000000000008
 20
31.9499999999999993
 30
0.0
  0
VERTEX
  5
300
  8
0
  6
CONTINUOUS
 10
13.8699999999999992
 20
31.9499999999999993
 30
0.0
  0
VERTEX
  5
301
  8
0
  6
CONTINUOUS
 10
13.8699999999999992
 20
32.6400000000000006
 30
0.0
  0
VERTEX
  5
302
  8
0
  6
CONTINUOUS
 10
13.1300000000000008
 20
32.6400000000000006
 30
0.0
  0
SEQEND
  5
303
  8
0
  6
CONTINUOUS
  0
POLYLINE
  5
257
  8
0
  6
CONTINUOUS
 66
     1
 10
0.0
 20
0.0
 30
0.0
 70
     1
  0
VERTEX
  5
304
  8
0
  6
CONTINUOUS
 10
13.1300000000000008
 20
33.1099999999999994
 30
0.0
  0
VERTEX
  5
305
  8
0
  6
CONTINUOUS
 10
13.8699999999999992
 20
33.1099999999999994
 30
0.0
  0
VERTEX
  5
306
  8
0
  6
CONTINUOUS
 10
13.8699999999999992
 20
33.7999999999999972
 30
0.0
  0
VERTEX
  5
307
  8
0
  6
CONTINUOUS
 10
13.1300000000000008
 20
33.7999999999999972
 30
0.0
  0
SEQEND
  5
308
  8
0
  6
CONTINUOUS
  0
POLYLINE
  5
258
  8
0
  6
CONTINUOUS
 66
     1
 10
0.0
 20
0.0
 30
0.0
 70
     1
  0
VERTEX
  5
309
  8
0
  6
CONTINUOUS
 10
27.4637999999999991
 20
40.6749999999999901
 30
0.0
  0
VERTEX
  5
30A
  8
0
  6
CONTINUOUS
 10
26.7238000000000007
 20
40.6749999999999901
 30
0.0
  0
VERTEX
  5
30B
  8
0
  6
CONTINUOUS
 10
26.7238000000000007
 20
39.9849999999999994
 30
0.0
  0
VERTEX
  5
30C
  8
0
  6
CONTINUOUS
 10
27.4637999999999991
 20
39.9849999999999994
 30
0.0
  0
SEQEND
  5
30D
  8
0
  6
CONTINUOUS
  0
POLYLINE
  5
259
  8
0
  6
CONTINUOUS
 66
     1
 10
0.0
 20
0.0
 30
0.0
 70
     1
  0
VERTEX
  5
30E
  8
0
  6
CONTINUOUS
 10
27.4637999999999991
 20
39.5150000000000006
 30
0.0
  0
VERTEX
  5
30F
  8
0
  6
CONTINUOUS
 10
26.7238000000000007
 20
39.5150000000000006
 30
0.0
  0
VERTEX
  5
310
  8
0
  6
CONTINUOUS
 10
26.7238000000000007
 20
38.8250000000000028
 30
0.0
  0
VERTEX
  5
311
  8
0
  6
CONTINUOUS
 10
27.4637999999999991
 20
38.8250000000000028
 30
0.0
  0
SEQEND
  5
312
  8
0
  6
CONTINUOUS
  0
POLYLINE
  5
25A
  8
0
  6
CONTINUOUS
 66
     1
 10
0.0
 20
0.0
 30
0.0
 70
     1
  0
VERTEX
  5
313
  8
0
  6
CONTINUOUS
 10
21.1688000000000009
 20
35.6199999999999974
 30
0.0
  0
VERTEX
  5
314
  8
0
  6
CONTINUOUS
 10
21.1688000000000009
 20
34.8800000000000026
 30
0.0
  0
VERTEX
  5
315
  8
0
  6
CONTINUOUS
 10
21.8587999999999987
 20
34.8800000000000026
 30
0.0
  0
VERTEX
  5
316
  8
0
  6
CONTINUOUS
 10
21.8587999999999987
 20
35.6199999999999974
 30
0.0
  0
SEQEND
  5
317
  8
0
  6
CONTINUOUS
  0
POLYLINE
  5
25B
  8
0
  6
CONTINUOUS
 66
     1
 10
0.0
 20
0.0
 30
0.0
 70
     1
  0
VERTEX
  5
318
  8
0
  6
CONTINUOUS
 10
22.3288000000000011
 20
35.6199999999999974
 30
0.0
  0
VERTEX
  5
319
  8
0
  6
CONTINUOUS
 10
22.3288000000000011
 20
34.8800000000000026
 30
0.0
  0
VERTEX
  5
31A
  8
0
  6
CONTINUOUS
 10
23.0187999999999988
 20
34.8800000000000026
 30
0.0
  0
VERTEX
  5
31B
  8
0
  6
CONTINUOUS
 10
23.0187999999999988
 20
35.6199999999999974
 30
0.0
  0
SEQEND
  5
31C
  8
0
  6
CONTINUOUS
  0
POLYLINE
  5
25C
  8
0
  6
CONTINUOUS
 66
     1
 10
0.0
 20
0.0
 30
0.0
 70
     1
  0
VERTEX
  5
31D
  8
0
  6
CONTINUOUS
 10
15.9199999999999999
 20
37.8200000000000003
 30
0.0
  0
VERTEX
  5
31E
  8
0
  6
CONTINUOUS
 10
15.0800000000000001
 20
37.8200000000000003
 30
0.0
  0
VERTEX
  5
31F
  8
0
  6
CONTINUOUS
 10
15.0800000000000001
 20
36.8800000000000097
 30
0.0
  0
VERTEX
  5
320
  8
0
  6
CONTINUOUS
 10
15.9199999999999999
 20
36.8800000000000097
 30
0.0
  0
SEQEND
  5
321
  8
0
  6
CONTINUOUS
  0
POLYLINE
  5
25D
  8
0
  6
CONTINUOUS
 66
     1
 10
0.0
 20
0.0
 30
0.0
 70
     1
  0
VERTEX
  5
322
  8
0
  6
CONTINUOUS
 10
15.9199999999999999
 20
36.1199999999999974
 30
0.0
  0
VERTEX
  5
323
  8
0
  6
CONTINUOUS
 10
15.0800000000000001
 20
36.1199999999999974
 30
0.0
  0
VERTEX
  5
324
  8
0
  6
CONTINUOUS
 10
15.0800000000000001
 20
35.1799999999999997
 30
0.0
  0
VERTEX
  5
325
  8
0
  6
CONTINUOUS
 10
15.9199999999999999
 20
35.1799999999999997
 30
0.0
  0
SEQEND
  5
326
  8
0
  6
CONTINUOUS
  0
POLYLINE
  5
25E
  8
0
  6
CONTINUOUS
 66
     1
 10
0.0
 20
0.0
 30
0.0
 70
     1
  0
VERTEX
  5
327
  8
0
  6
CONTINUOUS
 10
19.1799999999999997
 20
31.8575000000000017
 30
0.0
  0
VERTEX
  5
328
  8
0
  6
CONTINUOUS
 10
19.1799999999999997
 20
31.0174999999999983
 30
0.0
  0
VERTEX
  5
329
  8
0
  6
CONTINUOUS
 10
20.120000000000001
 20
31.0174999999999983
 30
0.0
  0
VERTEX
  5
32A
  8
0
  6
CONTINUOUS
 10
20.120000000000001
 20
31.8575000000000017
 30
0.0
  0
SEQEND
  5
32B
  8
0
  6
CONTINUOUS
  0
POLYLINE
  5
25F
  8
0
  6
CONTINUOUS
 66
     1
 10
0.0
 20
0.0
 30
0.0
 70
     1
  0
VERTEX
  5
32C
  8
0
  6
CONTINUOUS
 10
20.879999999999999
 20
31.8575000000000017
 30
0.0
  0
VERTEX
  5
32D
  8
0
  6
CONTINUOUS
 10
20.879999999999999
 20
31.0174999999999983
 30
0.0
  0
VERTEX
  5
32E
  8
0
  6
CONTINUOUS
 10
21.8200000000000003
 20
31.0174999999999983
 30
0.0
  0
VERTEX
  5
32F
  8
0
  6
CONTINUOUS
 10
21.8200000000000003
 20
31.8575000000000017
 30
0.0
  0
SEQEND
  5
330
  8
0
  6
CONTINUOUS
  0
POLYLINE
  5
260
  8
0
  6
CONTINUOUS
 66
     1
 10
0.0
 20
0.0
 30
0.0
 70
     1
  0
VERTEX
  5
331
  8
0
  6
CONTINUOUS
 10
13.9199999999999999
 20
37.0700000000000003
 30
0.0
  0
VERTEX
  5
332
  8
0
  6
CONTINUOUS
 10
13.0800000000000001
 20
37.0700000000000003
 30
0.0
  0
VERTEX
  5
333
  8
0
  6
CONTINUOUS
 10
13.0800000000000001
 20
36.1300000000000026
 30
0.0
  0
VERTEX
  5
334
  8
0
  6
CONTINUOUS
 10
13.9199999999999999
 20
36.1300000000000026
 30
0.0
  0
SEQEND
  5
335
  8
0
  6
CONTINUOUS
  0
POLYLINE
  5
261
  8
0
  6
CONTINUOUS
 66
     1
 10
0.0
 20
0.0
 30
0.0
 70
     1
  0
VERTEX
  5
336
  8
0
  6
CONTINUOUS
 10
13.9199999999999999
 20
35.3699999999999974
 30
0.0
  0
VERTEX
  5
337
  8
0
  6
CONTINUOUS
 10
13.0800000000000001
 20
35.3699999999999974
 30
0.0
  0
VERTEX
  5
338
  8
0
  6
CONTINUOUS
 10
13.0800000000000001
 20
34.4299999999999997
 30
0.0
  0
VERTEX
  5
339
  8
0
  6
CONTINUOUS
 10
13.9199999999999999
 20
34.4299999999999997
 30
0.0
  0
SEQEND
  5
33A
  8
0
  6
CONTINUOUS
  0
POLYLINE
  5
262
  8
0
  6
CONTINUOUS
 66
     1
 10
0.0
 20
0.0
 30
0.0
 70
     1
  0
VERTEX
  5
33B
  8
0
  6
CONTINUOUS
 10
26.0762999999999998
 20
41.4763000000000019
 30
0.0
  0
VERTEX
  5
33C
  8
0
  6
CONTINUOUS
 10
25.2363
 20
41.4763000000000019
 30
0.0
  0
VERTEX
  5
33D
  8
0
  6
CONTINUOUS
 10
25.2363
 20
40.5362999999999971
 30
0.0
  0
VERTEX
  5
33E
  8
0
  6
CONTINUOUS
 10
26.0762999999999998
 20
40.5362999999999971
 30
0.0
  0
SEQEND
  5
33F
  8
0
  6
CONTINUOUS
  0
POLYLINE
  5
263
  8
0
  6
CONTINUOUS
 66
     1
 10
0.0
 20
0.0
 30
0.0
 70
     1
  0
VERTEX
  5
340
  8
0
  6
CONTINUOUS
 10
26.0762999999999998
 20
39.7762000000000029
 30
0.0
  0
VERTEX
  5
341
  8
0
  6
CONTINUOUS
 10
25.2363
 20
39.7762000000000029
 30
0.0
  0
VERTEX
  5
342
  8
0
  6
CONTINUOUS
 10
25.2363
 20
38.8361999999999981
 30
0.0
  0
VERTEX
  5
343
  8
0
  6
CONTINUOUS
 10
26.0762999999999998
 20
38.8361999999999981
 30
0.0
  0
SEQEND
  5
344
  8
0
  6
CONTINUOUS
  0
POLYLINE
  5
264
  8
0
  6
CONTINUOUS
 66
     1
 10
0.0
 20
0.0
 30
0.0
 70
     1
  0
VERTEX
  5
345
  8
0
  6
CONTINUOUS
 10
20.3988000000000014
 20
34.2325000000000017
 30
0.0
  0
VERTEX
  5
346
  8
0
  6
CONTINUOUS
 10
20.3988000000000014
 20
33.3924999999999983
 30
0.0
  0
VERTEX
  5
347
  8
0
  6
CONTINUOUS
 10
21.3387999999999991
 20
33.3924999999999983
 30
0.0
  0
VERTEX
  5
348
  8
0
  6
CONTINUOUS
 10
21.3387999999999991
 20
34.2325000000000017
 30
0.0
  0
SEQEND
  5
349
  8
0
  6
CONTINUOUS
  0
POLYLINE
  5
265
  8
0
  6
CONTINUOUS
 66
     1
 10
0.0
 20
0.0
 30
0.0
 70
     1
  0
VERTEX
  5
34A
  8
0
  6
CONTINUOUS
 10
22.0988000000000007
 20
34.2325000000000017
 30
0.0
  0
VERTEX
  5
34B
  8
0
  6
CONTINUOUS
 10
22.0988000000000007
 20
33.3924999999999983
 30
0.0
  0
VERTEX
  5
34C
  8
0
  6
CONTINUOUS
 10
23.0387999999999984
 20
33.3924999999999983
 30
0.0
  0
VERTEX
  5
34D
  8
0
  6
CONTINUOUS
 10
23.0387999999999984
 20
34.2325000000000017
 30
0.0
  0
SEQEND
  5
34E
  8
0
  6
CONTINUOUS
  0
POLYLINE
  5
266
  8
0
  6
CONTINUOUS
 66
     1
 10
0.0
 20
0.0
 30
0.0
 70
     1
  0
VERTEX
  5
34F
  8
0
  6
CONTINUOUS
 10
14.1750000000000007
 20
39.8224000000000018
 30
0.0
  0
VERTEX
  5
350
  8
0
  6
CONTINUOUS
 10
14.1750000000000007
 20
39.6775999999999982
 30
0.0
  0
VERTEX
  5
351
  8
0
  6
CONTINUOUS
 10
14.9293999999999993
 20
39.6775999999999982
 30
0.0
  0
VERTEX
  5
352
  8
0
  6
CONTINUOUS
 10
14.9293999999999993
 20
39.8224000000000018
 30
0.0
  0
SEQEND
  5
353
  8
0
  6
CONTINUOUS
  0
POLYLINE
  5
267
  8
0
  6
CONTINUOUS
 66
     1
 10
0.0
 20
0.0
 30
0.0
 70
     1
  0
VERTEX
  5
354
  8
0
  6
CONTINUOUS
 10
12.5050000000000008
 20
39.1375000000000028
 30
0.0
  0
VERTEX
  5
355
  8
0
  6
CONTINUOUS
 10
13.2449999999999992
 20
39.1375000000000028
 30
0.0
  0
VERTEX
  5
356
  8
0
  6
CONTINUOUS
 10
13.2449999999999992
 20
39.8275000000000006
 30
0.0
  0
VERTEX
  5
357
  8
0
  6
CONTINUOUS
 10
12.5050000000000008
 20
39.8275000000000006
 30
0.0
  0
SEQEND
  5
358
  8
0
  6
CONTINUOUS
  0
ENDSEC
  0
EOF
