  0
SECTION
  2
HEADER
  9
$ACADVER
  1
AC1009
  9
$INSBASE
 10
0.0
 20
0.0
 30
0.0
  9
$EXTMIN
 10
12.5050000000000008
 20
29.629999999999999
 30
0.0
  9
$EXTMAX
 10
27.4637999999999991
 20
41.4763000000000019
 30
0.0
  9
$LIMMIN
 10
0.0
 20
0.0
  9
$LIMMAX
 10
12.0
 20
9.0
  9
$ORTHOMODE
 70
     0
  9
$REGENMODE
 70
     1
  9
$FILLMODE
 70
     0
  9
$QTEXTMODE
 70
     0
  9
$MIRRTEXT
 70
     0
  9
$DRAGMODE
 70
     2
  9
$LTSCALE
 40
1.0
  9
$OSMODE
 70
  4095
  9
$ATTMODE
 70
     1
  9
$TEXTSIZE
 40
0.2
  9
$TRACEWID
 40
0.05
  9
$TEXTSTYLE
  7
STANDARD
  9
$CLAYER
  8
0
  9
$CELTYPE
  6
CONTINUOUS
  9
$CECOLOR
 62
   256
  9
$DIMSCALE
 40
1.0
  9
$DIMASZ
 40
0.18
  9
$DIMEXO
 40
0.0625
  9
$DIMDLI
 40
0.38
  9
$DIMRND
 40
0.0
  9
$DIMDLE
 40
0.0
  9
$DIMEXE
 40
0.18
  9
$DIMTP
 40
0.0
  9
$DIMTM
 40
0.0
  9
$DIMTXT
 40
0.18
  9
$DIMCEN
 40
0.09
  9
$DIMTSZ
 40
0.0
  9
$DIMTOL
 70
     0
  9
$DIMLIM
 70
     0
  9
$DIMTIH
 70
     1
  9
$DIMTOH
 70
     1
  9
$DIMSE1
 70
     0
  9
$DIMSE2
 70
     0
  9
$DIMTAD
 70
     0
  9
$DIMZIN
 70
     0
  9
$DIMBLK
  1

  9
$DIMASO
 70
     1
  9
$DIMSHO
 70
     1
  9
$DIMPOST
  1

  9
$DIMAPOST
  1

  9
$DIMALT
 70
     0
  9
$DIMALTD
 70
     2
  9
$DIMALTF
 40
25.3999999999999986
  9
$DIMLFAC
 40
1.0
  9
$DIMTOFL
 70
     0
  9
$DIMTVP
 40
0.0
  9
$DIMTIX
 70
     0
  9
$DIMSOXD
 70
     0
  9
$DIMSAH
 70
     0
  9
$DIMBLK1
  1

  9
$DIMBLK2
  1

  9
$DIMSTYLE
  2
STANDARD
  9
$DIMCLRD
 70
     0
  9
$DIMCLRE
 70
     0
  9
$DIMCLRT
 70
     0
  9
$DIMTFAC
 40
1.0
  9
$DIMGAP
 40
0.09
  9
$LUNITS
 70
     2
  9
$LUPREC
 70
     4
  9
$SKETCHINC
 40
0.1
  9
$FILLETRAD
 40
0.0
  9
$AUNITS
 70
     0
  9
$AUPREC
 70
     0
  9
$MENU
  1
.
  9
$ELEVATION
 40
0.0
  9
$PELEVATION
 40
0.0
  9
$THICKNESS
 40
0.0
  9
$LIMCHECK
 70
     0
  9
$BLIPMODE
 70
     0
  9
$CHAMFERA
 40
0.0
  9
$CHAMFERB
 40
0.0
  9
$SKPOLY
 70
     0
  9
$TDCREATE
 40
2458285.6370023149065673
  9
$TDUPDATE
 40
2458285.6375578697770834
  9
$TDINDWG
 40
0.0005555556
  9
$TDUSRTIMER
 40
0.0005555556
  9
$USRTIMER
 70
     1
  9
$ANGBASE
 50
0.0
  9
$ANGDIR
 70
     0
  9
$PDMODE
 70
     0
  9
$PDSIZE
 40
0.0
  9
$PLINEWID
 40
0.0
  9
$COORDS
 70
     1
  9
$SPLFRAME
 70
     0
  9
$SPLINETYPE
 70
     6
  9
$SPLINESEGS
 70
     8
  9
$ATTDIA
 70
     1
  9
$ATTREQ
 70
     1
  9
$HANDLING
 70
     1
  9
$HANDSEED
  5
18A
  9
$SURFTAB1
 70
     6
  9
$SURFTAB2
 70
     6
  9
$SURFTYPE
 70
     6
  9
$SURFU
 70
     6
  9
$SURFV
 70
     6
  9
$UCSNAME
  2

  9
$UCSORG
 10
0.0
 20
0.0
 30
0.0
  9
$UCSXDIR
 10
1.0
 20
0.0
 30
0.0
  9
$UCSYDIR
 10
0.0
 20
1.0
 30
0.0
  9
$PUCSNAME
  2

  9
$PUCSORG
 10
0.0
 20
0.0
 30
0.0
  9
$PUCSXDIR
 10
1.0
 20
0.0
 30
0.0
  9
$PUCSYDIR
 10
0.0
 20
1.0
 30
0.0
  9
$USERI1
 70
     0
  9
$USERI2
 70
     0
  9
$USERI3
 70
     0
  9
$USERI4
 70
     0
  9
$USERI5
 70
     0
  9
$USERR1
 40
0.0
  9
$USERR2
 40
0.0
  9
$USERR3
 40
0.0
  9
$USERR4
 40
0.0
  9
$USERR5
 40
0.0
  9
$WORLDVIEW
 70
     1
  9
$SHADEDGE
 70
     3
  9
$SHADEDIF
 70
    70
  9
$TILEMODE
 70
     1
  9
$MAXACTVP
 70
    64
  9
$PLIMCHECK
 70
     0
  9
$PEXTMIN
 10
1.0000000000000000E+20
 20
1.0000000000000000E+20
 30
1.0000000000000000E+20
  9
$PEXTMAX
 10
-1.0000000000000000E+20
 20
-1.0000000000000000E+20
 30
-1.0000000000000000E+20
  9
$PLIMMIN
 10
0.0
 20
0.0
  9
$PLIMMAX
 10
12.0
 20
9.0
  9
$UNITMODE
 70
     0
  9
$VISRETAIN
 70
     1
  9
$PLINEGEN
 70
     0
  9
$PSLTSCALE
 70
     1
  0
ENDSEC
  0
SECTION
  2
TABLES
  0
TABLE
  2
VPORT
 70
     1
  0
VPORT
  2
*ACTIVE
 70
     0
 10
0.0
 20
0.0
 11
1.0
 21
1.0
 12
14.8918379155387601
 22
39.4476163935307298
 13
0.0
 23
0.0
 14
1.0
 24
1.0
 15
0.0
 25
0.0
 16
0.0
 26
0.0
 36
1.0
 17
0.0
 27
0.0
 37
0.0
 40
8.6266466248683944
 41
1.8311345646437991
 42
50.0
 43
0.0
 44
0.0
 50
0.0
 51
0.0
 71
     0
 72
   100
 73
     1
 74
     1
 75
     0
 76
     0
 77
     0
 78
     0
  0
ENDTAB
  0
TABLE
  2
LTYPE
 70
     1
  0
LTYPE
  2
CONTINUOUS
 70
     0
  3
Solid line
 72
    65
 73
     0
 40
0.0
  0
ENDTAB
  0
TABLE
  2
LAYER
 70
     2
  0
LAYER
  2
0
 70
     0
 62
     7
  6
CONTINUOUS
  0
LAYER
  2
32
 70
     0
 62
   253
  6
CONTINUOUS
  0
ENDTAB
  0
TABLE
  2
STYLE
 70
     2
  0
STYLE
  2
STANDARD
 70
     0
 40
0.0
 41
1.0
 50
0.0
 71
     0
 42
0.2
  3
txt
  4

  0
STYLE
  2
ANNOTATIVE
 70
     0
 40
0.0
 41
1.0
 50
0.0
 71
     0
 42
0.2
  3
txt
  4

  0
ENDTAB
  0
TABLE
  2
VIEW
 70
     0
  0
ENDTAB
  0
TABLE
  2
UCS
 70
     0
  0
ENDTAB
  0
TABLE
  2
APPID
 70
     4
  0
APPID
  2
ACAD
 70
     0
  0
APPID
  2
ACADANNOTATIVE
 70
     0
  0
APPID
  2
ACAD_NAV_VCDISPLAY
 70
     0
  0
APPID
  2
ACAD_MLEADERVER
 70
     0
  0
ENDTAB
  0
TABLE
  2
DIMSTYLE
 70
     2
  0
DIMSTYLE
  2
STANDARD
 70
     0
  3

  4

  5

  6

  7

 40
1.0
 41
0.18
 42
0.0625
 43
0.38
 44
0.18
 45
0.0
 46
0.0
 47
0.0
 48
0.0
140
0.18
141
0.09
142
0.0
143
25.3999999999999986
144
1.0
145
0.0
146
1.0
147
0.09
 71
     0
 72
     0
 73
     1
 74
     1
 75
     0
 76
     0
 77
     0
 78
     0
170
     0
171
     2
172
     0
173
     0
174
     0
175
     0
176
     0
177
     0
178
     0
  0
DIMSTYLE
  2
ANNOTATIVE
 70
     0
  3

  4

  5

  6

  7

 40
1.0
 41
0.18
 42
0.0625
 43
0.38
 44
0.18
 45
0.0
 46
0.0
 47
0.0
 48
0.0
140
0.18
141
0.09
142
0.0
143
25.3999999999999986
144
1.0
145
0.0
146
1.0
147
0.09
 71
     0
 72
     0
 73
     1
 74
     1
 75
     0
 76
     0
 77
     0
 78
     0
170
     0
171
     2
172
     0
173
     0
174
     0
175
     0
176
     0
177
     0
178
     0
  0
ENDTAB
  0
ENDSEC
  0
SECTION
  2
BLOCKS
  0
BLOCK
  8
0
  2
$MODEL_SPACE
 70
     0
 10
0.0
 20
0.0
 30
0.0
  3
$MODEL_SPACE
  1

  0
ENDBLK
  5
71
  8
0
  0
BLOCK
 67
     1
  8
0
  2
$PAPER_SPACE
 70
     0
 10
0.0
 20
0.0
 30
0.0
  3
$PAPER_SPACE
  1

  0
ENDBLK
  5
6D
 67
     1
  8
0
  0
BLOCK
  8
0
  2
RECT
 70
     0
 10
0.0
 20
0.0
 30
0.0
  3
RECT
  1

  0
SOLID
  5
78
  8
0
 10
-0.5
 20
-0.5
 30
0.0
 11
0.5
 21
-0.5
 31
0.0
 12
-0.5
 22
0.5
 32
0.0
 13
0.5
 23
0.5
 33
0.0
  0
ENDBLK
  5
79
  8
0
  0
BLOCK
  8
0
  2
PIE
 70
     0
 10
0.0
 20
0.0
 30
0.0
  3
PIE
  1

  0
CIRCLE
  5
7C
  8
0
 10
0.0
 20
0.0
 30
0.0
 40
0.5
  0
ENDBLK
  5
7D
  8
0
  0
BLOCK
  8
0
  2
OCTAGONP
 70
     0
 10
0.0
 20
0.0
 30
0.0
  3
OCTAGONP
  1

  0
POLYLINE
  5
80
  8
0
 66
     1
 10
0.0
 20
0.0
 30
0.0
 70
     1
  0
VERTEX
  5
173
  8
0
 10
-0.5
 20
-0.2071
 30
0.0
  0
VERTEX
  5
174
  8
0
 10
-0.5
 20
0.2071
 30
0.0
  0
VERTEX
  5
175
  8
0
 10
-0.2071
 20
0.5
 30
0.0
  0
VERTEX
  5
176
  8
0
 10
0.2071
 20
0.5
 30
0.0
  0
VERTEX
  5
177
  8
0
 10
0.5
 20
0.2071
 30
0.0
  0
VERTEX
  5
178
  8
0
 10
0.5
 20
-0.2071
 30
0.0
  0
VERTEX
  5
179
  8
0
 10
0.2071
 20
-0.5
 30
0.0
  0
VERTEX
  5
17A
  8
0
 10
-0.2071
 20
-0.5
 30
0.0
  0
SEQEND
  5
17B
  8
0
  0
ENDBLK
  5
8A
  8
0
  0
BLOCK
  8
0
  2
SQUAREP
 70
     0
 10
0.0
 20
0.0
 30
0.0
  3
SQUAREP
  1

  0
SOLID
  5
8D
  8
0
 10
-0.5
 20
-0.5
 30
0.0
 11
0.5
 21
-0.5
 31
0.0
 12
-0.5
 22
0.5
 32
0.0
 13
0.5
 23
0.5
 33
0.0
  0
ENDBLK
  5
8E
  8
0
  0
BLOCK
  8
0
  2
ROUNDP
 70
     0
 10
0.0
 20
0.0
 30
0.0
  3
ROUNDP
  1

  0
CIRCLE
  5
91
  8
0
 10
0.0
 20
0.0
 30
0.0
 40
0.5
  0
ENDBLK
  5
92
  8
0
  0
BLOCK
  8
0
  2
ANNULUSP
 70
     0
 10
0.0
 20
0.0
 30
0.0
  3
ANNULUSP
  1

  0
CIRCLE
  5
95
  8
0
 10
0.0
 20
0.0
 30
0.0
 40
0.5
  0
ENDBLK
  5
96
  8
0
  0
BLOCK
  8
0
  2
THERMALP
 70
     0
 10
0.0
 20
0.0
 30
0.0
  3
THERMALP
  1

  0
LINE
  5
99
  8
0
 10
-0.2379
 20
0.45
 30
0.0
 11
0.2379
 21
0.45
 31
0.0
  0
LINE
  5
9A
  8
0
 10
0.45
 20
0.2379
 30
0.0
 11
0.45
 21
-0.2379
 31
0.0
  0
LINE
  5
9B
  8
0
 10
0.2379
 20
-0.45
 30
0.0
 11
-0.2379
 21
-0.45
 31
0.0
  0
LINE
  5
9C
  8
0
 10
-0.45
 20
-0.2379
 30
0.0
 11
-0.45
 21
0.2379
 31
0.0
  0
ENDBLK
  5
9D
  8
0
  0
BLOCK
  8
0
  2
OCTAGONV
 70
     0
 10
0.0
 20
0.0
 30
0.0
  3
OCTAGONV
  1

  0
POLYLINE
  5
A0
  8
0
 66
     1
 10
0.0
 20
0.0
 30
0.0
 70
     1
  0
VERTEX
  5
17C
  8
0
 10
-0.5
 20
-0.2071
 30
0.0
  0
VERTEX
  5
17D
  8
0
 10
-0.5
 20
0.2071
 30
0.0
  0
VERTEX
  5
17E
  8
0
 10
-0.2071
 20
0.5
 30
0.0
  0
VERTEX
  5
17F
  8
0
 10
0.2071
 20
0.5
 30
0.0
  0
VERTEX
  5
180
  8
0
 10
0.5
 20
0.2071
 30
0.0
  0
VERTEX
  5
181
  8
0
 10
0.5
 20
-0.2071
 30
0.0
  0
VERTEX
  5
182
  8
0
 10
0.2071
 20
-0.5
 30
0.0
  0
VERTEX
  5
183
  8
0
 10
-0.2071
 20
-0.5
 30
0.0
  0
SEQEND
  5
184
  8
0
  0
ENDBLK
  5
AA
  8
0
  0
BLOCK
  8
0
  2
SQUAREV
 70
     0
 10
0.0
 20
0.0
 30
0.0
  3
SQUAREV
  1

  0
SOLID
  5
AD
  8
0
 10
-0.5
 20
-0.5
 30
0.0
 11
0.5
 21
-0.5
 31
0.0
 12
-0.5
 22
0.5
 32
0.0
 13
0.5
 23
0.5
 33
0.0
  0
ENDBLK
  5
AE
  8
0
  0
BLOCK
  8
0
  2
ROUNDV
 70
     0
 10
0.0
 20
0.0
 30
0.0
  3
ROUNDV
  1

  0
CIRCLE
  5
B1
  8
0
 10
0.0
 20
0.0
 30
0.0
 40
0.5
  0
ENDBLK
  5
B2
  8
0
  0
BLOCK
  8
0
  2
ANNULUSV
 70
     0
 10
0.0
 20
0.0
 30
0.0
  3
ANNULUSV
  1

  0
CIRCLE
  5
B5
  8
0
 10
0.0
 20
0.0
 30
0.0
 40
0.5
  0
ENDBLK
  5
B6
  8
0
  0
BLOCK
  8
0
  2
THERMALV
 70
     0
 10
0.0
 20
0.0
 30
0.0
  3
THERMALV
  1

  0
LINE
  5
B9
  8
0
 10
-0.2379
 20
0.45
 30
0.0
 11
0.2379
 21
0.45
 31
0.0
  0
LINE
  5
BA
  8
0
 10
0.45
 20
0.2379
 30
0.0
 11
0.45
 21
-0.2379
 31
0.0
  0
LINE
  5
BB
  8
0
 10
0.2379
 20
-0.45
 30
0.0
 11
-0.2379
 21
-0.45
 31
0.0
  0
LINE
  5
BC
  8
0
 10
-0.45
 20
-0.2379
 30
0.0
 11
-0.45
 21
0.2379
 31
0.0
  0
ENDBLK
  5
BD
  8
0
  0
ENDSEC
  0
SECTION
  2
ENTITIES
  0
INSERT
  5
BE
  8
32
  2
RECT
 10
22.5687999999999995
 20
33.8125
 30
0.0
 41
0.9399999999999998
 42
0.84
 50
180.0
  0
INSERT
  5
BF
  8
32
  2
RECT
 10
20.8688000000000002
 20
33.8125
 30
0.0
 41
0.9399999999999998
 42
0.84
 50
180.0
  0
INSERT
  5
C0
  8
32
  2
RECT
 10
25.6563000000000017
 20
39.3061999999999969
 30
0.0
 41
0.9399999999999998
 42
0.84
 50
90.0
  0
INSERT
  5
C1
  8
32
  2
RECT
 10
25.6563000000000017
 20
41.0063000000000031
 30
0.0
 41
0.9399999999999998
 42
0.84
 50
90.0
  0
INSERT
  5
C2
  8
32
  2
RECT
 10
13.5
 20
34.8999999999999986
 30
0.0
 41
0.9399999999999998
 42
0.84
 50
90.0
  0
INSERT
  5
C3
  8
32
  2
RECT
 10
13.5
 20
36.6000000000000014
 30
0.0
 41
0.9399999999999998
 42
0.84
 50
90.0
  0
INSERT
  5
C4
  8
32
  2
RECT
 10
21.3500000000000014
 20
31.4375
 30
0.0
 41
0.9399999999999998
 42
0.84
 50
180.0
  0
INSERT
  5
C5
  8
32
  2
RECT
 10
19.6499999999999986
 20
31.4375
 30
0.0
 41
0.9399999999999998
 42
0.84
 50
180.0
  0
INSERT
  5
C6
  8
32
  2
RECT
 10
15.5
 20
35.6499999999999986
 30
0.0
 41
0.9399999999999998
 42
0.84
 50
90.0
  0
INSERT
  5
C7
  8
32
  2
RECT
 10
15.5
 20
37.3500000000000014
 30
0.0
 41
0.9399999999999998
 42
0.84
 50
90.0
  0
INSERT
  5
C8
  8
32
  2
RECT
 10
22.6738
 20
35.25
 30
0.0
 41
0.6899999999999999
 42
0.7400000000000001
 50
180.0
  0
INSERT
  5
C9
  8
32
  2
RECT
 10
21.5137999999999998
 20
35.25
 30
0.0
 41
0.6899999999999999
 42
0.7400000000000001
 50
180.0
  0
INSERT
  5
CA
  8
32
  2
RECT
 10
27.0938000000000017
 20
39.1700000000000017
 30
0.0
 41
0.6899999999999999
 42
0.7400000000000001
 50
90.0
  0
INSERT
  5
CB
  8
32
  2
RECT
 10
27.0938000000000017
 20
40.3299999999999983
 30
0.0
 41
0.6899999999999999
 42
0.7400000000000001
 50
90.0
  0
INSERT
  5
CC
  8
32
  2
RECT
 10
13.5
 20
33.4549999999999983
 30
0.0
 41
0.6899999999999999
 42
0.7400000000000001
 50
270.0
  0
INSERT
  5
CD
  8
32
  2
RECT
 10
13.5
 20
32.2950000000000017
 30
0.0
 41
0.6899999999999999
 42
0.7400000000000001
 50
270.0
  0
INSERT
  5
CE
  8
32
  2
RECT
 10
21.5799999999999983
 20
30.0
 30
0.0
 41
0.6899999999999999
 42
0.7400000000000001
 50
180.0
  0
INSERT
  5
CF
  8
32
  2
RECT
 10
20.4200000000000017
 20
30.0
 30
0.0
 41
0.6899999999999999
 42
0.7400000000000001
 50
180.0
  0
INSERT
  5
D0
  8
32
  2
RECT
 10
16.9375
 20
35.9825000000000017
 30
0.0
 41
0.6899999999999999
 42
0.7400000000000001
 50
90.0
  0
INSERT
  5
D1
  8
32
  2
RECT
 10
16.9375
 20
37.1424999999999983
 30
0.0
 41
0.6899999999999999
 42
0.7400000000000001
 50
90.0
  0
INSERT
  5
D2
  8
32
  2
RECT
 10
12.875
 20
40.6424999999999983
 30
0.0
 41
0.6899999999999999
 42
0.7400000000000001
 50
270.0
  0
INSERT
  5
D3
  8
32
  2
RECT
 10
12.875
 20
39.4825000000000017
 30
0.0
 41
0.6899999999999999
 42
0.7400000000000001
 50
270.0
  0
INSERT
  5
114
  8
32
  2
RECT
 10
17.4478000000000009
 20
40.75
 30
0.0
 41
0.7544
 42
0.1448
 50
180.0
  0
INSERT
  5
115
  8
32
  2
RECT
 10
17.4478000000000009
 20
40.25
 30
0.0
 41
0.7544
 42
0.1448
 50
180.0
  0
INSERT
  5
116
  8
32
  2
RECT
 10
17.4478000000000009
 20
39.75
 30
0.0
 41
0.7544
 42
0.1448
 50
180.0
  0
INSERT
  5
117
  8
32
  2
RECT
 10
17.4478000000000009
 20
39.25
 30
0.0
 41
0.7544
 42
0.1448
 50
180.0
  0
INSERT
  5
118
  8
32
  2
RECT
 10
14.5521999999999991
 20
39.25
 30
0.0
 41
0.7544
 42
0.1448
 50
180.0
  0
INSERT
  5
119
  8
32
  2
RECT
 10
14.5521999999999991
 20
39.75
 30
0.0
 41
0.7544
 42
0.1448
 50
180.0
  0
INSERT
  5
11A
  8
32
  2
RECT
 10
14.5521999999999991
 20
40.25
 30
0.0
 41
0.7544
 42
0.1448
 50
180.0
  0
INSERT
  5
11B
  8
32
  2
RECT
 10
14.5521999999999991
 20
40.75
 30
0.0
 41
0.7544
 42
0.1448
 50
180.0
  0
POLYLINE
  5
11E
  8
0
  6
CONTINUOUS
 66
     1
 10
0.0
 20
0.0
 30
0.0
 70
     1
  0
VERTEX
  5
185
  8
0
  6
CONTINUOUS
 10
15.2126000000000001
 20
40.7620000000000005
 30
0.0
  0
VERTEX
  5
186
  8
0
  6
CONTINUOUS
 10
16.7874000000000017
 20
40.7620000000000005
 30
0.0
  0
VERTEX
  5
187
  8
0
  6
CONTINUOUS
 10
16.7874000000000017
 20
39.2379999999999995
 30
0.0
  0
VERTEX
  5
188
  8
0
  6
CONTINUOUS
 10
15.2126000000000001
 20
39.2379999999999995
 30
0.0
  0
SEQEND
  5
189
  8
0
  6
CONTINUOUS
  0
ENDSEC
  0
EOF
